<svg fill="none" height="786" width="786" xmlns="http://www.w3.org/2000/svg">
    <path d="M392.857 785.714c216.969 0 392.857-175.888 392.857-392.857S609.826 0 392.857 0 0 175.888 0 392.857s175.888 392.857 392.857 392.857z" fill="#35d0ba"/>
    <path d="M308.6 476.733V269.8l-12.8-3.733c-4.8-1.6-7.467-5.867-7.467-10.667v-52.267c0-3.733 4.267-10.133 8-10.133h149.334c53.333 0 88 22.933 94.4 77.867l2.133 15.466 1.067 22.934V332.2c0 69.333-21.867 112.533-93.867 112.533l-68.267.534v9.066h6.934l-6.934 4.8v8.534l18.134-13.334h8.533l-26.667 19.734v2.666l5.334 2.134 33.066-24.534h8L393.4 480.467c4.267 1.6 9.067 5.333 9.067 11.2V543.4c0 4.8-4.267 10.667-9.067 10.667h-96.533c-4.8 0-8.534-5.867-8.534-10.667v-52.267c0-4.266 3.2-8.533 7.467-9.6zm-65.6-232 17.067-12.8h8.533l-25.6 19.2zm0 14.934 36.267-27.734v6.934L243 266.067zm0 14.933 36.267-27.733v6.4L243 281zm0 20.8v-5.867l35.733-27.2c1.067 1.6 1.6 3.734 1.6 5.867zm138.133-22.933v17.066l10.667-8h8.533l-19.2 14.4v8.534l30.4-22.934h9.067l-39.467 29.334V365.8H425.4c.533-1.6.533-4.267.533-5.333l36.267-27.734v6.934L427.533 365.8h9.067c.533 0 2.133-.533 2.133-.533l22.934-17.067v.533c0 1.067.533 5.867-1.067 6.934l-12.267 9.066c16 .534 21.334-9.066 21.867-24 .533-6.933 1.067-13.333 1.067-19.733 0-9.067-.534-18.133-1.6-27.2-2.134-19.2-13.867-21.333-30.934-21.333zm-135.466 29.866 37.866-28.8c2.134 1.067 4.8 1.6 5.867 2.134L250.467 305c-1.6 0-3.734-1.6-4.8-2.667zm18.133 6.4-5.333-1.066 38.933-29.334c1.067 0 2.133 0 2.667.534v3.733L263.8 310.333zm128 2.667 40-29.867c2.667 0 5.333 0 8 .534L400.333 311.4zm18.133 1.6 38.4-29.333h.534s1.6 1.066 2.133 1.066c1.067.534 1.6 1.067 2.667 1.6l-38.4 28.8h-.534c-1.066-1.066-3.733-1.6-4.8-2.133zM263.8 325.267v-6.934l36.267-27.2v6.4zm156.8-5.867 37.333-27.733c.534 0 2.134 3.733 2.134 4.8l-.534.533-36.8 27.2c-1.066-1.067-1.6-2.667-2.133-4.8zm3.733 12.267 36.8-27.2s.534 3.2.534 5.333c0 .533 0 .533-.534.533l-36.266 27.2s-.534-3.733-.534-5.866zm-160.533 1.6 36.267-27.2v5.866l-36.267 27.2zm161.6 12.266h.533l35.734-26.666c.533.533.533 3.2.533 4.8v1.066l-36.267 27.2c-.533-2.133-.533-3.2-.533-5.333zm-161.6 2.134 36.267-27.2v6.4l-36.267 27.2zm0 21.333v-6.4l36.267-27.2v6.4zm0 14.933v-6.4l36.267-27.2v6.4zm0 8.534 36.267-27.2v6.4l-36.267 27.2zm0 21.333v-6.4l36.267-27.2v6.4zm0 14.933v-6.4l36.267-27.733v6.933zm0 8.534 36.267-27.734v6.934l-36.267 27.2zm0 14.933 36.267-27.733v6.4L263.8 458.6zm0 21.333V466.6l36.267-27.2v6.4zm157.333 9.067 41.067-30.4 11.2-2.133L432.333 481zm27.734-29.333-40 30.4h-9.6l39.466-29.334c1.067-1.066 9.067-1.066 10.134-1.066zM263.8 481.533l36.267-27.2v6.4L263.8 488.467zm186.133-5.866 26.667-19.734c0 4.267-22.4 18.667-26.667 19.734zm-186.133 20.8 36.267-27.2v6.4L263.8 503.4zm0 19.733v-4.8l16-11.733c0 2.133 0 5.866-.533 5.866L243 532.733v-1.066c0-1.6 0-4.8 1.067-5.334 1.066-1.066 6.933-5.333 9.066-6.933zM243 541.267l36.267-27.2v6.4L243 548.2zm0 14.933 36.267-27.2v6.4L243 562.6zm0 21.333v-6.4l36.267-27.2v6.4zm.533 8 36.8-27.2c1.6 1.067 3.2 2.134 4.267 3.2L246.733 589.8l-.533.533c-.533 0-2.667-3.733-2.667-4.8zM254.2 593l39.467-29.867h8.533L262.733 593zm19.733 0 39.467-29.867h9.067l-40 29.867zm19.734 0 40-29.867h8.533L302.2 593zm28.8 0h-8.534l39.467-29.867h3.733v3.734zm11.2 0 23.466-17.6v6.4L342.2 593z" fill="#000"/>
</svg>
